<svg width="220" height="81" viewBox="0 0 220 81" xmlns="http://www.w3.org/2000/svg"><title>f8-logo-b</title><g fill="#002350" fill-rule="evenodd"><path d="M96.982 14.763v3.266h5.338v1.828h-5.338v4.965H94.64v-11.89h7.81v1.83h-5.468zm16.142 7.708h-5.077l-.91 2.353h-2.474l3.905-11.89h3.385l4.035 11.89h-2.343l-.52-2.352zm-.52-1.567l-2.213-6.27-1.952 6.27h4.166zm13.798-.26h2.344v.39c0 1.57-.26 2.744-.912 3.267-.52.523-1.822.653-4.035.653-2.344 0-3.776-.392-4.297-1.176-.52-.783-.78-2.874-.78-6.27 0-1.96.39-3.267 1.04-3.92s2.344-.914 4.557-.914c1.692 0 2.863.26 3.384.783.52.523.78 1.438.78 3.005v.263h-2.342v-.262c0-.783-.13-1.175-.39-1.436-.26-.26-.912-.26-1.953-.26-1.303 0-2.344.13-2.605.52-.26.393-.39 1.308-.39 3.137 0 2.353.13 3.66.39 4.05.26.393 1.042.654 2.474.654 1.04 0 1.82-.13 2.212-.392.26-.26.52-.784.52-1.437-.13-.13 0-.653 0-.653zm7.68-5.88v3.135h5.468v1.568h-5.467v3.397h5.858v1.96h-8.2v-11.89h8.07v1.83h-5.727zm9.504 10.06v-11.89h5.728c1.3 0 2.343.262 2.864.654.52.392.78 1.176.78 2.482 0 1.436-.52 2.35-1.692 2.612 1.302.262 1.953 1.176 1.953 2.874 0 1.176-.26 1.96-.782 2.613-.52.522-1.432.653-2.734.653h-6.248.13zm2.343-6.925h2.733c.91 0 1.432-.13 1.692-.26.26-.132.39-.654.39-1.307 0-.914-.52-1.436-1.562-1.436h-3.254v3.004zm0 4.965h3.253c.78 0 1.172-.13 1.432-.26.26-.263.39-.655.39-1.308s-.13-1.176-.39-1.306c-.26-.132-.78-.263-1.822-.263h-2.864v3.136zm15.88-10.06c2.214 0 3.515.392 4.166 1.045.65.654.912 2.352.912 4.834 0 2.744-.26 4.442-.912 5.095-.65.654-2.213 1.046-4.556 1.046-2.213 0-3.515-.392-4.166-1.046-.65-.653-.91-2.35-.91-4.572 0-2.874.26-4.573.91-5.357.65-.653 2.083-1.045 4.557-1.045zm-.13 1.83c-1.43 0-2.473.13-2.733.522-.26.392-.39 1.698-.39 4.05 0 1.698.13 2.743.39 3.135.26.392 1.17.523 2.733.523 1.302 0 2.344-.13 2.604-.523.26-.392.39-1.567.39-3.527 0-1.96-.13-3.136-.39-3.528-.39-.39-1.172-.653-2.604-.653zm13.54-1.83c2.212 0 3.514.392 4.165 1.045.65.654.91 2.352.91 4.834 0 2.744-.26 4.442-.91 5.095-.65.654-2.213 1.046-4.557 1.046-2.213 0-3.514-.392-4.165-1.046-.65-.653-.912-2.35-.912-4.572 0-2.874.262-4.573.913-5.357.65-.653 2.083-1.045 4.556-1.045zm-.13 1.83c-1.433 0-2.475.13-2.735.522-.26.392-.39 1.698-.39 4.05 0 1.698.13 2.743.39 3.135.26.392 1.172.523 2.734.523 1.3 0 2.342-.13 2.602-.523.26-.392.39-1.567.39-3.527 0-1.96-.13-3.136-.39-3.528-.39-.39-1.17-.653-2.603-.653zm11.064-1.7v4.835h1.04l3.907-4.834h2.864l-4.816 5.748 5.207 6.01h-2.864l-4.295-5.095h-1.04v5.226h-2.344v-11.89h2.344zM94.64 46.25V34.36h5.727c1.562 0 2.864.392 3.515 1.045.65.653.91 1.96.91 3.79 0 3.003-.26 4.832-.78 5.616-.52.785-1.692 1.177-3.645 1.177H94.64v.26zm2.342-1.96h3.255c1.04 0 1.692-.26 2.213-.783.26-.523.52-1.568.52-3.266 0-1.7-.13-2.875-.39-3.398-.26-.523-.91-.653-1.953-.653h-3.515v8.1h-.13zm13.54-8.1v3.136h5.466v1.568h-5.467v3.397h5.86v1.828h-8.202v-11.89h8.07v1.83c.13.13-5.727.13-5.727.13zm17.182-1.828h2.474l-3.776 11.888h-3.514l-3.776-11.888h2.344l2.343 6.793c.26.653.52 1.7.91 3.266l.26-.785c.26-.914.52-1.698.65-2.482l2.084-6.793zm7.29 1.83v3.134h5.468v1.568h-5.468v3.397h5.858v1.828h-8.07v-11.89h8.07v1.83c0 .13-5.858.13-5.858.13zm11.846-1.83v9.798h5.468v1.96h-7.81v-11.89c0 .132 2.342.132 2.342.132zm13.54-.13c2.212 0 3.513.39 4.164 1.044.65.653.912 2.352.912 4.834 0 2.744-.26 4.442-.912 5.095-.65.653-2.213 1.045-4.556 1.045-2.213 0-3.515-.392-4.166-1.045-.65-.653-.91-2.35-.91-4.572 0-2.874.26-4.572.91-5.356.65-.653 2.214-1.045 4.557-1.045zm-.13 1.828c-1.433 0-2.475.13-2.735.523-.26.393-.39 1.7-.39 4.05 0 1.7.13 2.744.39 3.136.26.392 1.17.523 2.734.523 1.3 0 2.342-.132 2.602-.524.26-.392.39-1.568.39-3.527 0-1.96-.13-3.137-.39-3.53-.26-.26-1.04-.652-2.603-.652zm8.72 10.19V34.36h5.338c1.562 0 2.733.26 3.254.784.52.522.78 1.567.78 3.266 0 1.698-.26 2.743-.78 3.266-.52.522-1.562.784-3.254.784h-3.255v3.788h-2.083zm2.213-5.88h2.604c1.04 0 1.562-.13 1.822-.39.26-.262.39-.784.39-1.568 0-.915-.13-1.568-.39-1.83-.26-.26-.782-.39-1.693-.39h-2.864v4.31h.13v-.13zm12.628-4.18v3.136h5.468v1.568h-5.467v3.397h5.86v1.828h-8.203v-11.89h8.07v1.83h-5.726v.13zm9.504 10.06V34.36h5.727c1.433 0 2.475.26 2.996.784.52.522.78 1.437.78 2.743 0 1.176-.13 1.96-.39 2.482-.26.39-.78.783-1.692.914v.13c1.302.13 1.952.784 1.952 2.352v2.613h-2.213v-2.222c0-1.176-.52-1.83-1.692-1.83h-3.253v4.05c0-.13-2.213-.13-2.213-.13zm2.343-6.01h3.254c.782 0 1.303-.13 1.433-.39.26-.263.39-.785.39-1.57 0-.783-.13-1.305-.26-1.567-.26-.26-.65-.39-1.432-.39h-3.383v3.92zM102.06 63.364h2.342v.392c0 1.568-.26 2.743-.91 3.266-.522.524-1.823.654-4.036.654-2.344 0-3.776-.392-4.296-1.176-.52-.783-.78-2.874-.78-6.27 0-1.96.39-3.267 1.04-3.92s2.343-.914 4.556-.914c1.693 0 2.864.26 3.385.783.522.523.782 1.438.782 3.005v.262H101.8v-.262c0-.784-.13-1.176-.392-1.437-.26-.26-.91-.26-1.952-.26-1.302 0-2.344.13-2.604.52-.26.393-.39 1.308-.39 3.137 0 2.352.13 3.658.39 4.05.26.392 1.04.653 2.473.653 1.042 0 1.823-.13 2.213-.392.39-.26.52-.784.52-1.437-.13-.13 0-.653 0-.653zm10.544-7.708c2.213 0 3.514.392 4.165 1.045.65.653.91 2.352.91 4.834 0 2.743-.26 4.442-.91 5.095-.652.652-2.214 1.044-4.557 1.044-2.213 0-3.515-.392-4.166-1.045-.65-.654-.91-2.353-.91-4.574 0-2.874.26-4.572.91-5.356.65-.784 2.083-1.045 4.557-1.045zm-.13 1.96c-1.433 0-2.474.13-2.734.522-.26.392-.39 1.698-.39 4.05 0 1.698.13 2.744.39 3.136.26.392 1.17.522 2.733.522 1.302 0 2.344-.13 2.604-.522.26-.392.39-1.568.39-3.528s-.13-3.135-.39-3.527c-.39-.523-1.172-.653-2.604-.653zM132 55.655v11.89h-3.775l-3.385-6.534c-.13-.26-.39-.913-.78-1.697l-.39-.784-.392-.785h-.13v10.06h-1.953v-11.89h3.775l3.125 6.01c.26.523.52 1.177.91 1.83l.39.914.392.914h.13v-9.93h2.213-.13zm6.38 1.96v3.266h5.336v1.83h-5.337v4.834h-2.344v-11.89h7.81v1.83c0 .13-5.467.13-5.467.13zm11.064 0v3.135h5.467v1.568h-5.466v3.397h5.858v1.83h-8.2v-11.89h8.07v1.83c0 .13-5.728.13-5.728.13zm9.503 9.93v-11.89h5.728c1.432 0 2.473.26 2.994.784.52.52.78 1.436.78 2.742 0 1.307-.13 1.96-.39 2.483-.26.39-.782.783-1.693.914v.13c1.302.13 1.953.784 1.953 2.35v2.614h-2.344v-2.22c0-1.177-.52-1.83-1.692-1.83h-3.254v4.05c0-.13-2.083-.13-2.083-.13zm2.083-5.75h3.254c.78 0 1.302-.13 1.432-.392.26-.26.39-.784.39-1.568 0-.783-.13-1.306-.26-1.567-.13-.262-.65-.392-1.432-.392h-3.384v3.92zm13.278-4.18v3.135h5.467v1.568h-5.467v3.397h5.858v1.83h-8.202v-11.89h8.072v1.83h-5.728v.13zm20.568-1.96v11.89H191.1l-3.384-6.534c-.13-.26-.39-.913-.78-1.697l-.392-.784-.39-.785h-.13v10.06h-2.344v-11.89h3.776l3.124 6.01c.26.523.52 1.177.91 1.83l.392.914.39.914h.13v-9.93h2.474zm11.325 7.708h2.344v.392c0 1.568-.26 2.743-.91 3.266-.522.524-1.823.654-4.036.654-2.344 0-3.776-.392-4.296-1.176-.52-.783-.78-2.874-.78-6.27 0-1.96.39-3.267 1.04-3.92s2.343-.914 4.556-.914c1.693 0 2.864.26 3.385.783.52.523.78 1.438.78 3.005v.262h-2.342v-.262c0-.784-.13-1.176-.39-1.437-.26-.26-.91-.26-1.952-.26-1.302 0-2.344.13-2.604.52-.26.393-.39 1.308-.39 3.137 0 2.352.13 3.658.39 4.05.26.392 1.042.653 2.473.653 1.042 0 1.823-.13 2.213-.392.26-.26.52-.784.52-1.437v-.653zm7.682-5.748v3.135h5.467v1.568h-5.468v3.397h5.858v1.83h-8.202v-11.89h8.07v1.83c.132.13-5.726.13-5.726.13zM27.858 49.906h-3.515V30.57H37.75v3.267H27.99v4.703h8.462v3.266h-8.592v8.1zm13.018-5.356c0-2.613 1.302-4.05 2.733-4.703-1.172-.653-2.344-2.22-2.344-4.18 0-4.05 3.255-5.488 7.03-5.488 3.775 0 7.03 1.305 7.03 5.486 0 1.96-.912 3.528-2.344 4.18 1.432.523 2.734 1.96 2.734 4.704 0 3.658-2.473 5.618-7.55 5.618-4.947.13-7.29-1.96-7.29-5.618zm11.586-.26c0-2.484-2.213-2.875-4.036-2.875-1.822 0-4.035.39-4.035 2.874 0 1.828 1.563 2.612 4.036 2.612s4.036-.654 4.036-2.613zm-.52-8.363c0-1.83-1.433-2.482-3.516-2.482s-3.515.523-3.515 2.482c0 2.22 1.694 2.613 3.516 2.613 1.692 0 3.515-.392 3.515-2.613z"/><path d="M40.095 80.216c-10.935 0-21.48-1.83-30.983-5.226-1.562-.653-2.994-1.96-3.645-3.788C2.083 61.926.26 51.212.26 40.5c0-10.713 1.693-21.426 5.207-30.702C6.117 8.1 7.42 6.532 9.112 6.01 18.485 2.482 29.16.784 40.095.784c10.935 0 21.48 1.83 30.982 5.226 1.562.653 2.994 1.96 3.645 3.788 3.385 9.276 5.207 19.99 5.207 30.702 0 10.713-1.693 21.426-5.208 30.702-.65 1.698-1.953 3.266-3.645 3.788-9.503 3.397-20.047 5.226-30.982 5.226zm0-75.774c-10.415 0-20.568 1.698-29.55 4.964-.52.262-1.042.654-1.302 1.438-3.255 8.883-5.077 19.204-5.077 29.395 0 10.45 1.692 20.51 4.946 29.394.26.653.65 1.176 1.302 1.437 8.852 3.267 19.136 4.965 29.55 4.965 10.415 0 20.57-1.698 29.55-4.964.522-.26 1.042-.652 1.303-1.436 3.254-8.884 4.946-19.205 4.946-29.395 0-10.192-1.822-20.513-5.077-29.396-.26-.654-.65-1.176-1.3-1.438-8.723-3.266-18.877-4.964-29.29-4.964z"/></g></svg>