<svg xmlns="http://www.w3.org/2000/svg" viewBox="0 0 180 180"><g fill="#FFF"><path d="M62.4 111.7h-7.9V68.3h30.3v7.3H62.7v10.6h19.1v7.3H62.4v18.2zM91.8 99.8c0-5.8 3-9.1 6.1-10.6-2.7-1.5-5.2-4.8-5.2-9.4 0-9.1 7.3-12.4 15.8-12.4s15.8 3 15.8 12.4c0 4.5-2.1 7.9-5.2 9.4 3.3 1.2 6.1 4.5 6.1 10.6 0 8.2-5.5 12.7-17 12.7-10.9.1-16.4-4.5-16.4-12.7zm26.1-.6c0-5.5-4.8-6.4-9.1-6.4-4.2 0-9.1.9-9.1 6.4 0 4.2 3.6 5.8 9.1 5.8s9.1-1.5 9.1-5.8zm-1.2-18.7c0-4.2-3.3-5.5-7.9-5.5-4.5 0-7.9 1.2-7.9 5.5 0 4.8 3.9 5.8 7.9 5.8s7.9-1 7.9-5.8z"/></g><path fill="#FFF" d="M90 179.8c-24.5 0-48.5-4.2-69.7-11.8-3.6-1.5-6.7-4.5-8.2-8.5C4.5 138.6.3 114.7.3 90.5s3.9-48.2 11.8-69.1c1.5-4.5 4.2-7.6 8.2-9.1C41.5 4.4 65.5.5 90 .5s48.5 4.2 69.7 11.8c3.9 1.5 7 4.5 8.2 8.5 7.6 20.9 11.8 44.8 11.8 69.1s-3.9 48.2-11.8 69.1c-1.5 3.9-4.5 7.3-8.2 8.5-21.2 8.1-45.2 12.3-69.7 12.3zM90 9.5c-23.3 0-46.4 3.9-66.7 11.2-1.2.6-2.4 1.5-3 3.3-7 20-10.9 42.7-10.9 66.1s3.9 46.1 11.2 66.1c.6 1.5 1.5 2.7 3 3.3 20 7.3 43 11.2 66.7 11.2 23.3 0 46.4-3.9 66.7-11.2 1.2-.6 2.4-1.5 3-3.3 7.3-20 11.2-43 11.2-66.1S167.3 44 160 24c-.6-1.5-1.5-2.7-3-3.3-20.6-7.5-43.7-11.2-67-11.2z"/></svg>