<svg width="1109" height="145" viewBox="0 0 1109 145" xmlns="http://www.w3.org/2000/svg"><title>mask-d</title><path d="M44.893 129.703c23.535 0 37.47-13.316 38.71-32.516H63.318c-1.083 10.374-8.36 15.64-17.342 15.64-12.542 0-19.82-8.363-19.82-24.62v-1.24c0-15.484 7.743-24.155 19.356-24.155 9.135 0 14.865 4.336 16.413 13.78h21.213c-2.013-23.225-19.355-31.43-38.09-31.43-23.072 0-41.807 15.947-41.807 42.115v1.24c0 26.476 17.962 41.186 41.653 41.186zm83.476-17.032c-12.698 0-19.82-9.29-19.82-24.774v-1.238c0-15.484 7.432-24.465 19.82-24.465 12.54 0 19.818 9.29 19.818 24.774v1.084c0 15.33-7.277 24.62-19.82 24.62zm-.156 17.033c24.31 0 42.736-16.258 42.736-41.807v-1.238c0-25.24-18.27-41.497-42.58-41.497S85.632 61.73 85.632 87.123v1.24c0 25.238 18.426 41.34 42.58 41.34zm81 0c11.922 0 21.83-6.968 26.012-15.174V128h22.297V10.322h-22.297v48.774c-4.49-8.206-12.542-13.935-25.548-13.935-20.284 0-35.614 15.64-35.614 42.272v1.24c0 26.94 15.484 41.03 35.15 41.03zm6.657-17.497c-11.147 0-18.89-7.897-18.89-24v-1.24c0-16.102 6.968-24.618 19.51-24.618 12.233 0 19.356 8.206 19.356 24.31v1.238c0 16.413-8.207 24.31-19.975 24.31zm91.84 17.497c22.14 0 36.077-9.755 38.71-27.252h-21.214c-1.394 6.814-6.503 11.305-16.878 11.305-12.232 0-19.51-7.742-20.13-21.213h58.376v-6.194c0-28.955-18.58-41.187-39.484-41.187-23.536 0-41.652 16.568-41.652 42.117v1.24c0 25.857 17.806 41.186 42.27 41.186zm-19.2-50.942c1.702-11.457 8.515-18.115 18.58-18.115 10.684 0 16.877 5.884 17.65 18.116h-36.23zM411.02 129.55c6.04 0 10.53-1.083 13.626-2.167v-17.34c-2.632 1.082-5.11 1.547-8.516 1.547-5.73 0-8.98-3.097-8.98-9.6v-39.02h17.032V47.02H407.15V29.52h-22.295V47.02H374.48v15.947h10.375V104c0 16.877 9.135 25.548 26.167 25.548zM470.5 112.67c-12.698 0-19.82-9.29-19.82-24.774v-1.238c0-15.484 7.43-24.465 19.82-24.465 12.54 0 19.818 9.29 19.818 24.774v1.084c0 15.33-7.277 24.62-19.82 24.62zm-.156 17.033c24.31 0 42.736-16.258 42.736-41.807v-1.238c0-25.24-18.27-41.497-42.58-41.497s-42.737 16.568-42.737 41.962v1.24c0 25.238 18.426 41.34 42.58 41.34zm114.617 0c23.536 0 37.472-13.316 38.71-32.516h-20.283c-1.084 10.374-8.362 15.64-17.342 15.64-12.542 0-19.82-8.363-19.82-24.62v-1.24c0-15.484 7.742-24.155 19.355-24.155 9.136 0 14.865 4.336 16.413 13.78h21.213c-2.013-23.225-19.355-31.43-38.09-31.43-23.072 0-41.807 15.947-41.807 42.115v1.24c0 26.476 17.96 41.186 41.65 41.186zm83.477-17.032c-12.697 0-19.82-9.29-19.82-24.774v-1.238c0-15.484 7.433-24.465 19.82-24.465 12.542 0 19.82 9.29 19.82 24.774v1.084c0 15.33-7.278 24.62-19.82 24.62zm-.155 17.033c24.31 0 42.736-16.258 42.736-41.807v-1.238c0-25.24-18.27-41.497-42.58-41.497S625.7 61.73 625.7 87.123v1.24c0 25.238 18.427 41.34 42.582 41.34zm50.65-1.703h22.452V81.238c0-11.922 7.278-17.806 16.878-17.806 9.91 0 14.245 5.264 14.245 16.258V128h22.452V76.438c0-21.677-11.304-31.277-27.253-31.277-13.47 0-22.297 6.66-26.323 14.71V47.02h-22.45V128zm88.122 0h22.452V81.238c0-11.922 7.277-17.806 16.878-17.806 9.91 0 14.245 5.264 14.245 16.258V128h22.45V76.438c0-21.677-11.303-31.277-27.25-31.277-13.472 0-22.298 6.66-26.324 14.71V47.02h-22.452V128zm125.438 1.703c22.142 0 36.078-9.755 38.71-27.252H949.99c-1.394 6.814-6.504 11.305-16.878 11.305-12.233 0-19.51-7.742-20.13-21.213h58.375v-6.194c0-28.955-18.58-41.187-39.484-41.187-23.536 0-41.652 16.568-41.652 42.117v1.24c0 25.857 17.808 41.186 42.272 41.186zm-19.2-50.942c1.703-11.457 8.516-18.115 18.58-18.115 10.685 0 16.878 5.884 17.653 18.116h-36.233zm102.367 50.943c23.535 0 37.47-13.316 38.71-32.516h-20.285c-1.084 10.374-8.36 15.64-17.342 15.64-12.542 0-19.82-8.363-19.82-24.62v-1.24c0-15.484 7.742-24.155 19.355-24.155 9.136 0 14.865 4.336 16.413 13.78h21.214c-2.012-23.225-19.355-31.43-38.09-31.43-23.07 0-41.807 15.947-41.807 42.115v1.24c0 26.476 17.96 41.186 41.652 41.186zm75.27-.155c6.038 0 10.528-1.083 13.625-2.167v-17.34c-2.633 1.082-5.11 1.547-8.516 1.547-5.73 0-8.982-3.097-8.982-9.6v-39.02h17.032V47.02h-17.032V29.52h-22.297V47.02h-10.373v15.947h10.374V104c0 16.877 9.136 25.548 26.17 25.548zM0 0h1109v145H0V0z" fill="#FFF" fill-rule="evenodd"/></svg>